<?xml version="1.0" standalone="no"?>
<!DOCTYPE svg PUBLIC "-//W3C//DTD SVG 20010904//EN"
 "http://www.w3.org/TR/2001/REC-SVG-20010904/DTD/svg10.dtd">
<svg version="1.0" xmlns="http://www.w3.org/2000/svg"
 width="872.000000pt" height="872.000000pt" viewBox="0 0 872.000000 872.000000"
 preserveAspectRatio="xMidYMid meet">
<metadata>
Created by potrace 1.14, written by Peter Selinger 2001-2017
</metadata>
<g transform="translate(0.000000,872.000000) scale(0.100000,-0.100000)"
fill="#000000" stroke="none">
<path d="M1977 5994 c-1 -1 -27 -4 -57 -7 -30 -2 -62 -6 -70 -9 -8 -3 -46 -14
-85 -24 -90 -23 -227 -91 -313 -156 -113 -86 -311 -296 -298 -317 3 -4 71 15
153 42 135 45 157 50 253 52 115 3 176 -10 248 -51 99 -58 181 -178 211 -309
6 -27 14 -63 17 -80 4 -16 8 -300 9 -630 3 -660 3 -664 -52 -666 -85 -3 -179
-24 -278 -62 -198 -75 -319 -198 -390 -396 -23 -64 -28 -84 -42 -196 -8 -66
-8 -243 1 -325 11 -110 13 -121 25 -133 14 -14 30 3 63 68 30 60 113 132 197
172 69 34 84 37 176 40 101 3 190 -16 276 -57 l26 -12 -1 -738 c0 -406 -4
-741 -7 -744 -7 -7 -36 -11 -159 -21 -141 -11 -325 -53 -480 -110 -68 -24
-244 -120 -319 -173 -94 -66 -230 -205 -281 -287 -81 -130 -126 -257 -145
-403 -3 -24 -8 -54 -11 -68 -5 -18 -2 -24 9 -24 19 0 43 23 62 61 9 16 20 29
25 29 6 0 10 5 10 11 0 16 115 133 175 178 177 135 376 196 640 195 147 0 206
-9 386 -59 130 -35 305 -113 425 -190 139 -88 302 -239 389 -360 61 -83 75
-91 111 -56 16 15 45 38 64 51 19 14 42 30 50 37 8 7 137 107 285 223 149 115
335 262 415 325 140 112 185 138 199 118 3 -5 58 -54 121 -109 126 -107 139
-119 370 -310 85 -70 157 -130 160 -133 3 -4 21 -18 40 -33 19 -14 44 -34 55
-44 11 -11 43 -37 70 -59 28 -22 60 -49 72 -60 55 -52 128 -111 144 -117 12
-5 36 6 76 34 32 22 60 44 63 47 3 4 32 27 65 52 33 24 66 49 75 56 173 139
534 403 592 434 13 7 25 15 28 18 4 6 158 105 245 158 75 46 359 204 397 222
201 91 601 94 771 5 l48 -25 -1 43 c-1 24 -1 906 0 1960 l1 1917 36 28 c19 15
44 36 54 46 10 9 23 17 28 17 5 0 11 3 13 8 2 4 39 34 83 66 44 33 86 66 93
73 8 7 23 18 34 24 39 21 158 129 158 144 0 8 -71 -3 -84 -14 -6 -4 -40 -16
-76 -26 -98 -28 -274 -26 -360 5 -70 25 -131 56 -195 100 -79 54 -280 263
-330 343 l-29 46 -28 -17 c-15 -9 -28 -20 -28 -24 0 -4 -7 -8 -15 -8 -8 0 -15
-4 -15 -8 0 -5 -12 -15 -27 -23 -16 -8 -32 -18 -38 -22 -5 -5 -77 -55 -160
-113 -82 -57 -158 -111 -167 -118 -9 -8 -26 -20 -38 -26 -23 -12 -267 -182
-287 -199 -7 -6 -17 -11 -23 -11 -5 0 -10 -4 -10 -10 0 -5 -7 -10 -15 -10 -8
0 -15 -4 -15 -10 0 -5 -6 -10 -14 -10 -8 0 -16 -4 -18 -8 -5 -14 -228 -162
-243 -162 -18 0 -17 -18 -20 310 -1 140 -3 259 -4 263 -2 11 -71 5 -79 -8 -4
-5 -7 -1065 -7 -2355 0 -2137 -1 -2345 -16 -2348 -9 -1 -49 23 -90 55 -101 79
-113 89 -188 159 l-65 62 -2 1888 c-1 1039 -4 1907 -7 1929 -3 22 -11 65 -17
95 -6 30 -13 66 -16 80 -8 46 -56 184 -82 240 -83 175 -234 335 -394 416 l-50
25 -62 -42 c-33 -24 -63 -46 -66 -50 -3 -3 -115 -89 -250 -189 -135 -101 -247
-186 -250 -190 -22 -26 -441 -330 -462 -335 l-28 -7 -1 238 c-1 132 0 256 1
277 1 21 -4 45 -10 53 -14 16 -66 19 -75 4 -3 -5 -5 -967 -5 -2137 1 -2438 2
-2375 -11 -2387 -5 -6 -202 86 -299 138 l-45 25 -1 140 c-1 78 -4 148 -8 156
-3 8 -2 15 2 15 8 0 6 125 -2 147 -3 7 -2 13 2 13 8 0 7 443 -2 465 -3 8 -2
15 2 15 8 0 6 125 -2 147 -3 7 -2 13 2 13 8 0 7 443 -2 465 -3 8 -2 15 2 15 8
0 6 125 -2 147 -3 7 -2 13 2 13 8 0 7 443 -2 465 -3 8 -2 15 2 15 4 0 6 60 5
133 -1 72 -2 155 -2 182 -1 28 -1 151 0 275 0 124 -1 230 -2 235 -1 6 -1 13 0
17 4 30 4 138 -1 143 -3 3 -3 20 1 38 4 18 4 47 0 65 -3 17 -4 32 0 32 3 0 5
60 4 133 -2 175 -3 229 -2 247 3 30 -10 151 -22 212 -17 88 -84 238 -153 343
-171 261 -435 415 -734 428 -39 2 -73 3 -75 1z m4791 -703 c3 -8 -1 -12 -9 -9
-7 2 -15 10 -17 17 -3 8 1 12 9 9 7 -2 15 -10 17 -17z m-4312 2 c-10 -11 -37
-12 -30 -2 3 5 12 9 21 9 9 0 13 -3 9 -7z m-106 -13 c0 -5 -4 -10 -10 -10 -5
0 -10 5 -10 10 0 6 5 10 10 10 6 0 10 -4 10 -10z m2305 0 c-3 -5 -10 -10 -16
-10 -5 0 -9 5 -9 10 0 6 7 10 16 10 8 0 12 -4 9 -10z m-2073 -32 c-7 -7 -10
-5 -7 8 5 29 6 30 12 16 3 -8 1 -18 -5 -24z m4018 6 c8 0 31 -8 50 -16 34 -16
34 -16 8 -17 -29 -1 -62 -27 -52 -42 7 -12 79 -2 119 16 33 15 51 18 108 16
29 -1 38 -5 35 -17 -2 -8 -7 -15 -13 -16 -5 0 -18 -4 -28 -9 -14 -8 -15 -14
-7 -29 6 -11 14 -19 18 -18 4 1 19 -2 35 -7 32 -9 48 -34 50 -79 2 -29 4 -31
42 -31 38 0 40 -1 48 -43 5 -27 17 -48 32 -58 22 -14 22 -18 11 -47 -7 -18
-11 -50 -9 -72 2 -22 6 -76 8 -120 2 -44 5 -89 7 -100 2 -11 -3 -20 -9 -21 -7
-1 -17 -2 -23 -3 -11 -1 -14 -34 -4 -44 3 -3 17 -1 31 4 17 6 30 5 43 -4 18
-12 17 -15 -14 -47 -29 -31 -31 -37 -20 -59 15 -29 10 -41 -17 -41 -14 0 -21
9 -25 30 -9 41 -20 38 -28 -7 -11 -68 -7 -101 17 -130 50 -61 57 -79 42 -100
-12 -17 -12 -26 0 -60 8 -22 15 -64 17 -93 3 -54 -1 -61 -44 -74 -17 -5 -17
-7 0 -38 21 -38 38 -46 45 -21 3 10 5 3 4 -15 -1 -23 -13 -45 -40 -74 -21 -23
-34 -44 -28 -47 5 -4 8 -15 7 -26 -5 -29 3 -36 23 -25 15 8 18 5 17 -18 -1
-25 -4 -27 -43 -26 -50 2 -54 -7 -16 -34 20 -14 27 -28 25 -46 -1 -19 4 -29
21 -36 19 -8 17 -9 -14 -9 -45 -1 -72 -26 -32 -29 36 -3 37 -6 19 -41 -22 -42
-20 -48 14 -56 34 -7 41 -34 11 -42 -16 -4 -19 -13 -18 -54 1 -32 6 -49 14
-49 14 0 15 -6 4 -35 -5 -13 -3 -25 7 -34 12 -12 11 -16 -8 -26 -13 -7 -28
-23 -35 -36 -11 -19 -10 -27 2 -46 9 -13 11 -23 5 -23 -5 0 -17 -11 -26 -25
-16 -24 -15 -25 30 -70 40 -39 45 -49 37 -67 -7 -15 -5 -30 8 -54 19 -37 17
-79 -7 -141 -15 -42 -16 -42 -57 -37 -37 4 -40 3 -25 -9 16 -13 16 -15 -2 -33
-11 -11 -20 -38 -23 -67 -3 -44 -1 -49 29 -72 l32 -24 -1 45 c-1 51 18 73 42
49 12 -12 11 -21 -12 -65 l-26 -51 29 -31 c34 -35 36 -41 16 -57 -22 -19 -63
26 -57 62 2 13 -16 7 -30 -9 -7 -9 -12 -29 -11 -43 2 -15 -1 -38 -6 -51 -12
-33 6 -50 52 -50 l34 0 -13 -55 c-11 -49 -10 -57 6 -85 25 -41 23 -59 -10 -98
-25 -29 -28 -38 -21 -69 10 -42 27 -55 51 -42 24 13 35 11 21 -3 -6 -6 -22
-13 -34 -15 -45 -6 -48 -10 -37 -39 5 -15 9 -49 8 -76 -2 -46 -4 -49 -28 -46
-23 3 -28 -4 -56 -68 -29 -71 -95 -161 -95 -133 0 9 -6 23 -12 32 -11 15 -17
16 -45 5 -18 -7 -35 -9 -38 -6 -9 9 65 78 91 84 27 7 21 34 -7 34 -11 0 -22 7
-25 15 -9 22 -19 18 -33 -11 -10 -22 -14 -24 -26 -14 -9 7 -13 15 -11 18 10 9
-15 43 -26 36 -7 -4 -8 -3 -4 4 4 7 20 9 39 6 30 -5 31 -5 13 10 -10 8 -23 13
-28 10 -9 -6 -98 46 -98 57 0 4 6 11 13 17 10 8 16 4 25 -18 11 -24 17 -28 35
-21 35 13 42 34 21 66 -10 15 -20 23 -22 16 -6 -18 -18 -13 -30 14 -16 34 -17
30 23 54 19 11 35 24 35 30 0 5 -20 12 -44 15 -46 7 -86 29 -74 41 4 4 15 0
24 -9 9 -9 18 -15 20 -13 8 8 -8 37 -21 37 -8 0 -11 8 -8 20 4 14 -2 23 -19
30 -13 6 -30 20 -37 31 -10 17 -9 26 9 56 11 20 18 43 15 54 -8 25 12 59 34
59 10 0 24 6 30 14 16 19 1 28 -53 31 -22 2 -43 3 -46 4 -2 1 6 8 18 17 12 8
28 27 36 42 15 30 13 99 -3 115 -7 7 -5 14 7 23 15 11 14 15 -13 40 -17 16
-35 27 -42 26 -25 -5 -21 16 4 23 15 3 32 14 39 23 10 13 8 20 -8 33 -12 11
-15 20 -8 24 16 10 12 43 -8 63 -15 15 -16 21 -5 30 7 7 9 20 6 29 -4 10 -2
14 5 9 6 -3 14 -1 18 5 4 8 3 9 -4 5 -7 -4 -17 7 -27 31 -20 50 -19 58 7 58
33 0 33 26 -2 65 -28 31 -34 44 -31 63 1 4 -5 23 -13 41 -14 34 -14 35 14 46
26 11 27 13 14 38 -7 15 -16 46 -20 70 -5 35 -4 42 10 42 9 0 21 -9 28 -20 14
-22 43 -27 54 -9 8 13 -46 65 -77 74 -18 6 -28 35 -11 35 4 0 22 13 39 29 23
21 30 35 26 50 -3 11 -9 21 -15 21 -5 0 -4 -9 2 -20 6 -11 8 -20 6 -20 -3 0
-13 14 -22 31 -16 31 -15 32 12 54 l27 22 -41 16 c-23 9 -42 19 -42 21 0 3 13
14 30 26 29 21 57 29 113 34 15 1 28 6 28 10 0 4 -19 24 -43 45 -43 38 -48 39
-88 13 -3 -2 4 -10 14 -18 16 -11 17 -17 8 -26 -9 -9 -12 -8 -12 5 0 9 -11 19
-25 23 -30 7 -30 5 -4 49 16 27 20 44 15 73 l-6 37 25 -30 c14 -16 25 -33 25
-37 0 -5 7 -8 15 -8 21 0 19 18 -8 54 -46 61 -40 86 20 86 29 0 49 18 23 21
-5 1 -16 2 -22 3 -7 1 -20 -1 -29 -5 -50 -24 -90 111 -54 181 19 37 24 38 23
3 0 -16 0 -40 1 -54 l1 -27 37 19 c21 10 48 19 62 19 13 0 21 3 17 8 -4 4 -26
7 -48 7 -46 0 -65 22 -28 32 21 6 22 7 6 19 -10 6 -21 25 -25 41 -5 15 -12 27
-17 27 -5 -1 -23 -4 -40 -7 -26 -5 -33 -2 -37 14 -4 16 4 24 39 42 26 12 43
26 40 34 -3 7 -1 15 4 18 6 4 10 -3 10 -14 0 -30 19 -36 41 -12 19 20 18 48
-2 35 -5 -3 -8 0 -7 6 3 12 -13 24 -47 35 -19 6 -19 7 -3 19 16 12 15 15 -12
41 -33 31 -44 90 -15 79 10 -4 15 0 15 11 0 9 -5 13 -11 9 -12 -7 -7 54 5 75
5 7 1 9 -11 5 -17 -5 -17 -5 1 10 10 8 15 19 12 24 -3 6 2 8 14 5 11 -3 20 -9
20 -14 0 -5 10 -9 23 -9 21 1 21 1 -6 25 -16 14 -34 23 -40 19 -7 -3 -3 1 7
10 12 10 19 27 18 48 -1 27 1 30 9 16 16 -29 36 -22 31 12 -3 19 -12 32 -26
36 -11 4 -24 11 -28 17 -7 12 20 66 46 92 21 21 7 35 -35 35 -26 0 -67 34 -52
43 8 4 50 15 86 22 9 2 17 -1 17 -7 0 -6 3 -8 7 -5 3 4 12 -1 19 -11 8 -9 0
17 -17 58 -16 42 -42 91 -58 109 -29 33 -33 69 -12 95 8 10 6 18 -9 31 -22 20
-28 41 -7 28 6 -4 19 -8 27 -9z m-2037 -21 c15 -14 -15 -32 -44 -26 -17 3 -29
1 -29 -5 0 -18 87 -102 105 -102 26 0 45 -31 34 -52 -8 -14 -6 -18 10 -18 11
0 21 5 23 12 3 8 11 7 28 -5 14 -9 32 -17 42 -17 18 0 48 -47 48 -75 0 -14 -3
-14 -27 -1 -18 9 -36 11 -50 5 -20 -7 -24 -4 -34 32 -9 27 -15 36 -21 27 -6
-10 -11 -9 -19 5 -5 9 -18 17 -29 17 -24 0 -25 -48 -2 -105 23 -58 38 -73 72
-69 35 4 40 -3 42 -59 0 -34 5 -45 22 -53 11 -5 27 -21 34 -36 11 -23 10 -31
-3 -52 -12 -17 -14 -35 -9 -60 8 -43 15 -49 46 -37 22 8 25 6 35 -30 11 -42 7
-47 -23 -24 -21 16 -35 19 -32 8 2 -5 -3 -23 -11 -41 -10 -24 -22 -35 -43 -39
-24 -5 -29 -10 -26 -32 3 -23 7 -26 41 -23 34 3 37 1 37 -23 0 -14 -4 -24 -9
-21 -13 8 -32 -53 -22 -71 4 -8 12 -16 16 -16 5 -1 9 -23 10 -49 0 -26 6 -53
12 -59 6 -6 9 -26 6 -44 -4 -28 -1 -36 26 -56 35 -26 38 -35 14 -43 -12 -4
-18 -17 -19 -37 -2 -45 -44 -70 -44 -25 0 25 -23 51 -38 42 -14 -8 -6 -83 11
-109 12 -18 12 -24 1 -35 -7 -6 -17 -12 -22 -12 -17 0 -41 -35 -33 -49 7 -11
13 -10 35 4 14 9 43 19 65 21 l39 4 -34 -98 c-18 -53 -34 -98 -34 -99 0 -2 0
-10 0 -18 0 -8 -16 -30 -35 -50 -20 -19 -31 -36 -25 -36 5 -1 16 -2 23 -3 22
-3 56 16 62 36 4 10 11 18 16 18 6 0 8 -4 4 -9 -3 -5 1 -16 9 -23 18 -19 9
-112 -13 -132 -9 -8 -27 -17 -41 -19 -40 -8 -55 -16 -69 -38 -11 -19 -9 -25
16 -53 37 -39 83 -111 90 -139 15 -65 14 -76 -11 -113 -33 -48 -33 -60 1 -76
36 -18 39 -34 10 -53 -19 -12 -31 -13 -51 -6 -31 13 -34 2 -5 -22 15 -13 19
-25 15 -42 -4 -16 1 -32 19 -53 21 -25 30 -29 64 -25 l40 4 -32 -50 c-18 -27
-34 -50 -37 -50 -3 -1 -4 17 -2 39 2 22 1 40 -2 40 -12 0 -35 -59 -40 -103 -5
-39 -3 -50 14 -64 19 -17 19 -17 0 -50 -19 -33 -19 -33 2 -52 11 -11 36 -27
55 -36 l34 -16 -23 -19 c-13 -10 -24 -28 -24 -39 -2 -37 -4 -40 -25 -46 -17
-6 -20 -12 -15 -40 6 -29 3 -35 -36 -61 -24 -16 -54 -32 -67 -36 -20 -6 -22
-4 -18 13 3 11 0 33 -7 49 -10 24 -15 27 -30 18 -15 -8 -16 -12 -5 -19 8 -4
15 -17 15 -28 1 -24 24 -81 33 -82 3 0 15 -2 25 -4 19 -4 68 37 77 64 3 8 10
11 16 8 8 -5 9 -17 2 -40 -14 -48 -12 -51 34 -74 27 -14 35 -21 22 -22 -11 0
-41 -5 -67 -12 l-47 -12 -71 51 c-59 44 -70 49 -70 32 0 -11 -5 -20 -12 -20
-19 0 35 -52 70 -67 39 -16 49 -37 31 -59 -11 -14 -10 -16 16 -12 23 2 32 -2
42 -22 19 -37 16 -58 -11 -84 -12 -13 -26 -32 -30 -41 -5 -14 -2 -16 16 -10
25 7 97 9 104 2 9 -9 -9 -37 -23 -37 -18 0 -14 -38 7 -63 8 -10 30 -28 49 -39
l33 -21 -33 -14 c-44 -18 -50 -31 -34 -69 7 -18 11 -35 7 -38 -15 -16 -8 -41
20 -64 25 -22 29 -31 25 -59 -5 -28 -3 -33 14 -33 11 0 18 -4 15 -8 -3 -5 -7
-22 -10 -38 -3 -16 -13 -34 -22 -41 -19 -14 -5 -48 26 -58 11 -3 20 -14 20
-23 0 -12 -3 -13 -8 -5 -6 9 -17 6 -40 -15 -31 -26 -32 -28 -20 -66 13 -40 51
-66 98 -66 11 0 20 -5 20 -11 0 -5 -4 -8 -9 -5 -5 3 -35 -18 -67 -48 l-58 -54
65 4 c35 2 69 0 75 -4 6 -4 21 -29 33 -55 17 -38 20 -52 11 -63 -9 -9 -17 -11
-30 -4 -9 5 -20 6 -24 3 -11 -11 -6 17 9 54 8 19 15 37 15 38 0 2 -25 -12 -56
-30 -31 -19 -60 -32 -64 -30 -11 7 8 -73 25 -104 10 -19 14 -21 15 -8 0 10 8
17 20 17 26 0 26 -16 -1 -30 -16 -9 -18 -14 -8 -26 14 -17 14 -16 -27 -37 -27
-14 -34 -14 -44 -2 -7 9 -8 20 -2 32 15 30 4 42 -33 36 -28 -4 -34 -2 -40 18
-5 14 -3 25 4 27 6 2 11 10 11 17 0 7 5 15 12 17 9 3 6 12 -8 30 -18 23 -22
24 -39 12 -10 -8 -27 -14 -38 -14 -17 0 -19 -5 -14 -47 4 -27 11 -65 17 -86 8
-25 8 -43 1 -55 -6 -9 -11 -11 -11 -4 0 6 1 13 2 15 1 1 -4 12 -11 25 -7 13
-21 22 -35 22 -31 0 -116 64 -116 88 0 9 5 10 19 2 11 -5 24 -10 29 -10 12 0
29 41 25 62 -3 13 -10 15 -36 7 -18 -5 -33 -9 -34 -9 -1 0 -1 14 -1 30 1 22
-6 36 -23 48 -13 9 -40 31 -58 48 -33 30 -34 32 -17 49 13 14 15 20 5 26 -7 4
-21 3 -30 -2 -21 -11 -76 -1 -86 15 -16 25 -12 47 10 56 21 8 20 11 -5 14 -23
2 -15 41 10 44 27 4 28 15 1 59 -16 26 -20 43 -15 71 4 20 8 46 10 57 5 38 26
66 44 61 20 -7 44 26 36 48 -3 8 -19 20 -36 27 -29 12 -30 13 -9 21 17 6 20
12 13 25 -7 12 -5 24 7 42 13 21 13 24 1 16 -13 -8 -12 -5 1 15 9 14 22 36 30
49 8 13 36 38 64 57 l49 34 -54 -6 c-30 -2 -71 -6 -90 -8 -19 -2 -40 -2 -47 1
-13 5 49 73 85 92 24 13 26 19 13 40 -7 10 -13 11 -32 1 -22 -10 -22 -10 -6 3
13 11 17 26 15 58 -2 33 1 44 12 45 8 1 21 2 27 3 7 0 12 12 11 26 -2 23 -4
24 -25 10 -12 -8 -29 -15 -38 -15 -8 0 -15 -9 -15 -20 0 -23 -6 -25 -25 -6
-12 11 -10 15 11 25 16 7 22 15 17 24 -4 6 -8 22 -9 34 -1 19 7 24 52 33 47
10 84 30 55 30 -6 0 -11 5 -11 12 0 9 3 9 12 0 7 -7 23 -12 37 -12 22 0 23 2
11 14 -8 8 -30 17 -47 19 -18 3 -39 12 -48 20 -8 8 -20 17 -27 20 -19 6 -7 15
27 20 27 3 30 8 30 38 0 24 -5 35 -17 37 -11 2 -18 -3 -18 -12 0 -9 5 -16 10
-16 6 0 10 -3 10 -7 0 -5 -15 -9 -34 -9 -27 -1 -33 2 -29 17 3 9 18 23 35 30
20 8 26 14 17 20 -7 4 -17 5 -21 3 -17 -11 -7 21 14 43 18 20 20 28 12 61 -7
27 -15 38 -31 40 -19 3 -21 6 -13 23 6 10 17 19 25 19 21 0 19 16 -2 24 -66
24 -89 56 -61 84 18 18 45 15 68 -8 11 -11 33 -20 48 -20 26 0 28 2 24 35 -2
19 -8 38 -13 41 -20 12 -7 21 26 18 31 -2 35 0 35 22 0 14 7 36 16 49 9 13 14
30 11 37 -2 8 -13 -3 -26 -24 -12 -20 -31 -40 -42 -43 -11 -4 -25 -18 -31 -31
-17 -37 -45 -40 -79 -8 -28 26 -28 28 -11 47 11 12 18 38 19 71 0 28 2 54 2
59 1 4 17 15 36 24 l34 16 -26 14 c-15 8 -34 13 -42 12 -32 -3 -35 1 -12 17
18 13 20 18 10 25 -8 5 -16 3 -21 -4 -10 -16 -26 1 -32 35 -7 41 17 55 58 35
28 -13 37 -14 52 -3 15 12 16 17 5 43 -18 44 -66 87 -87 79 -20 -8 -67 20 -59
34 9 14 51 12 90 -4 19 -8 35 -11 35 -7 0 5 16 16 35 25 35 17 53 51 41 81 -5
14 5 28 48 63 8 6 20 12 26 12 5 0 10 5 10 10 0 6 -16 10 -36 8 -44 -3 -95
-47 -87 -76 10 -38 -15 -31 -52 14 l-37 45 -24 -22 c-24 -22 -30 -19 -35 21
-4 40 0 43 51 36 46 -6 50 -5 51 14 1 11 3 25 4 30 1 6 3 22 4 36 0 14 5 23
10 20 4 -3 17 1 27 9 18 14 17 14 -11 15 -17 0 -37 6 -44 12 -12 13 -16 14
-46 17 -23 2 -18 26 8 38 12 5 35 9 51 9 15 -1 31 4 33 11 8 20 -17 43 -46 43
-21 0 -31 8 -44 35 l-17 35 36 15 c22 9 33 19 28 26 -5 9 -11 7 -19 -5 -19
-26 -45 -10 -39 24 5 20 0 33 -17 49 l-23 21 30 0 c65 0 109 103 73 171 -10
19 -18 37 -19 42 0 13 50 7 76 -9 13 -9 27 -14 30 -11 3 3 -3 8 -14 11 -11 4
-23 18 -26 31 -4 15 -14 25 -25 25 -10 0 -24 7 -31 15 -10 12 -7 17 14 26 35
16 33 31 -6 54 -18 10 -33 18 -33 16 0 -1 -8 1 -17 4 -13 5 -17 18 -17 48 1
23 -1 48 -2 56 -4 15 41 32 71 26 13 -3 17 1 13 11 -5 13 -25 18 -68 15 -17
-1 -17 1 5 13 14 9 31 15 38 16 6 0 22 10 34 22 l22 22 -21 13 c-18 12 -20 19
-12 43 6 16 24 35 42 44 18 8 25 16 17 16 -8 0 -22 4 -30 10 -12 7 -11 12 7
28 l22 18 -31 29 c-25 24 -29 34 -25 61 4 24 -1 42 -17 66 -23 34 -27 35 -86
23 l-35 -8 27 29 c15 16 41 35 58 41 29 11 30 10 30 -17 0 -32 14 -47 27 -28
12 21 12 36 -2 48 -11 9 -8 16 11 35 28 28 32 64 7 61 -9 -2 -19 -9 -21 -17
-13 -40 -56 -55 -87 -29 -22 18 -18 35 15 73 28 32 32 59 15 87 -8 13 -5 12
33 -1 28 -10 31 -14 26 -37 -9 -37 -13 -42 -28 -36 -17 7 -30 -12 -16 -21 6
-4 19 0 29 9 10 9 28 19 41 21 31 6 33 10 20 35 -6 12 -14 19 -18 16 -3 -4
-11 7 -18 24 -15 34 -52 53 -71 38 -7 -6 -11 -14 -8 -18 3 -5 1 -11 -3 -14 -5
-3 -9 4 -8 15 0 11 8 24 16 29 8 5 16 14 16 20 1 5 2 15 3 20 0 6 8 10 16 10
8 0 15 5 15 10 0 6 -6 10 -14 10 -7 0 -19 7 -26 15 -10 12 -6 14 23 11 20 -2
46 2 59 9 26 15 52 18 61 8z m-2040 -36 c7 -18 -25 -53 -45 -49 -22 4 -23 20
-1 44 19 21 39 23 46 5z m3509 -52 c45 -35 90 -70 98 -78 8 -7 37 -31 65 -53
27 -21 59 -48 71 -60 12 -11 34 -30 49 -42 35 -28 35 -28 34 -402 0 -376 -10
-654 -23 -667 -10 -10 -155 -43 -216 -50 -113 -12 -374 -4 -400 12 -5 3 -24 7
-43 9 -62 8 -117 26 -118 39 -1 10 -9 397 -9 457 -2 284 -1 559 2 595 3 26 18
39 113 102 126 83 116 76 215 147 41 30 76 55 77 55 1 1 39 -28 85 -64z m888
61 c0 -3 -4 -8 -10 -11 -5 -3 -10 -1 -10 4 0 6 5 11 10 11 6 0 10 -2 10 -4z
m-2245 -19 c6 -1 21 -10 35 -20 21 -15 23 -19 10 -27 -21 -14 -33 -12 -84 10
-25 10 -46 17 -46 14 0 -3 -5 -2 -11 2 -16 10 41 34 66 28 11 -3 25 -6 30 -7z
m-2285 -23 c0 -16 -16 -19 -25 -4 -8 13 4 32 16 25 5 -4 9 -13 9 -21z m4080
-18 c0 -3 -4 -8 -10 -11 -5 -3 -10 -1 -10 4 0 6 5 11 10 11 6 0 10 -2 10 -4z
m-4036 -55 c3 -5 -1 -14 -8 -20 -12 -10 -13 -8 -9 8 6 23 9 25 17 12z m1496
-45 c89 -24 163 -69 191 -119 l22 -40 0 -496 c-1 -273 -2 -511 -4 -529 -2 -28
-7 -33 -38 -42 -169 -45 -373 -47 -566 -6 -89 19 -121 31 -128 48 -7 20 -10
1078 -3 1113 3 11 5 23 5 27 2 13 45 31 86 36 22 2 72 10 110 16 94 17 245 12
325 -8z m-1327 -55 c33 -13 33 -18 6 -40 -12 -10 -23 -30 -23 -47 -2 -23 -7
-29 -26 -29 -28 0 -36 17 -17 36 28 29 27 47 -3 73 -17 14 -30 27 -30 29 0 6
56 -7 93 -22z m3965 11 c2 -7 -3 -12 -12 -12 -9 0 -16 7 -16 16 0 17 22 14 28
-4z m-4099 -21 c12 -16 21 -34 21 -39 0 -6 6 -13 13 -15 7 -3 7 -6 1 -6 -6 -1
-24 10 -40 24 -35 30 -46 28 -56 -12 -12 -45 -28 -55 -67 -42 -25 9 -29 14
-20 25 6 8 20 14 30 14 14 0 30 23 34 50 5 39 57 40 84 1z m2331 -91 c0 -16
-60 -41 -81 -35 -31 10 -17 28 26 32 22 2 41 6 44 9 7 7 11 5 11 -6z m-2255
-30 c3 -5 6 -42 6 -82 0 -78 12 -113 35 -104 8 3 22 2 32 -2 13 -5 11 -8 -12
-12 -28 -5 -28 -6 -13 -22 14 -14 15 -18 2 -28 -8 -7 -25 -10 -38 -6 -19 4
-23 1 -25 -19 -1 -16 5 -26 19 -30 13 -4 18 -12 15 -22 -3 -8 -6 -18 -6 -22 0
-4 -20 -18 -45 -30 -35 -17 -45 -28 -45 -47 0 -28 -2 -28 45 -8 34 14 38 14
49 -2 10 -13 22 -16 53 -12 27 4 40 2 40 -7 0 -6 -5 -12 -11 -13 -6 0 -22 -3
-36 -6 -14 -3 -37 -8 -53 -12 -30 -6 -28 5 -17 -145 0 -4 9 -9 20 -12 13 -3
20 -14 20 -29 0 -29 -17 -48 -37 -41 -10 4 -8 -8 9 -41 17 -36 30 -49 51 -53
25 -5 27 -9 22 -35 -6 -26 -3 -30 24 -41 40 -15 51 -58 24 -96 -20 -26 -20
-27 -1 -70 18 -44 15 -60 -17 -83 -6 -5 -6 -8 2 -8 33 0 60 -73 31 -82 -8 -3
-7 -11 5 -28 22 -32 22 -47 0 -28 -25 20 -52 12 -46 -13 7 -25 -11 -46 -48
-54 -28 -6 -48 -29 -36 -41 6 -6 76 -6 119 -1 29 4 29 -2 0 -35 -8 -10 -25
-18 -37 -18 -13 0 -25 -6 -28 -14 -7 -19 30 -77 53 -83 30 -8 32 -31 5 -73
-31 -48 -31 -54 -2 -73 l22 -16 -39 -37 c-22 -21 -41 -33 -43 -28 -4 12 -63 6
-63 -6 0 -4 13 -25 30 -48 l29 -41 31 16 c17 8 34 13 37 10 13 -13 -11 -63
-45 -94 -20 -18 -31 -33 -25 -33 6 0 18 -11 27 -24 14 -22 14 -26 1 -40 -12
-11 -22 -13 -40 -6 -29 11 -40 -3 -48 -66 l-6 -40 34 31 c43 41 62 46 108 28
l36 -15 -19 -38 c-11 -21 -24 -41 -30 -45 -5 -3 -10 -21 -10 -38 0 -43 -79
-138 -139 -167 -48 -24 -56 -20 -67 32 -4 15 -10 25 -15 22 -5 -3 -9 1 -9 8 0
7 -4 19 -9 27 -12 19 -51 4 -51 -20 0 -16 5 -19 19 -14 14 4 23 0 31 -15 7
-13 7 -20 0 -21 -33 -4 -45 -2 -42 9 1 7 -5 12 -13 12 -8 0 -14 5 -13 12 2 7
-5 12 -14 13 -10 0 -18 4 -19 8 -2 13 23 70 43 100 11 15 15 27 10 27 -14 0
-82 72 -82 87 0 7 -10 23 -21 34 -12 12 -22 36 -24 53 -1 18 -5 39 -10 47 -4
8 -5 11 0 7 4 -4 16 -3 25 2 26 14 10 74 -33 119 -18 20 -42 54 -52 76 -10 22
-24 46 -32 53 -7 7 -14 20 -14 28 -1 8 -3 19 -4 24 -1 6 -3 17 -4 25 -2 23
-16 18 -29 -10 -8 -17 -17 -23 -33 -20 -30 6 -30 7 -17 43 12 30 11 32 -47 87
-34 32 -67 54 -75 52 -41 -12 -45 -11 -41 3 3 8 5 27 6 43 2 15 3 30 4 33 0 3
13 -3 29 -14 40 -29 82 -6 120 66 12 24 22 46 22 48 0 11 -56 2 -72 -13 -12
-11 -18 -12 -18 -4 0 7 22 34 50 60 51 48 70 50 70 6 0 -14 7 -21 20 -22 23
-2 23 0 11 45 -13 45 3 79 51 103 40 20 44 29 28 58 -7 14 -4 20 14 29 27 12
36 7 36 -20 0 -11 7 -18 20 -18 26 0 26 25 1 67 -11 17 -16 33 -10 35 14 5 29
67 18 73 -5 4 -9 -2 -9 -11 0 -10 -3 -14 -7 -11 -8 9 14 54 41 85 22 25 29 62
12 62 -6 0 -1 8 10 18 12 9 26 26 32 37 8 15 11 16 12 4 0 -8 -5 -20 -12 -27
-6 -6 -8 -15 -4 -19 8 -8 46 32 46 48 0 5 -18 12 -40 15 -40 6 -58 19 -46 31
4 4 12 1 18 -5 21 -21 27 -13 16 19 -8 25 -8 34 5 46 21 21 50 9 42 -16 -6
-20 32 -71 53 -71 6 0 15 -8 21 -17 11 -21 17 -17 26 18 6 23 3 27 -20 33 -15
4 -39 19 -53 33 -24 24 -24 27 -8 32 16 6 16 8 -3 33 -27 34 -26 39 5 36 23
-3 28 1 31 25 3 19 -1 27 -12 27 -13 0 -20 18 -16 43 1 4 -9 11 -22 16 -31 12
-59 40 -52 52 3 4 21 16 39 24 18 9 39 27 47 41 12 23 11 28 -6 40 -18 14 -22
13 -41 -12 -17 -20 -23 -23 -30 -13 -18 30 -14 50 13 60 35 13 51 37 49 71
l-2 28 26 -31 c18 -23 32 -30 50 -28 35 5 35 31 0 51 -33 19 -40 38 -12 38 14
0 15 2 2 10 -10 6 -16 6 -18 0 -2 -6 -13 -15 -24 -21 -15 -8 -24 -7 -39 7 -16
14 -22 15 -28 5 -7 -10 -12 -10 -30 0 -11 8 -21 17 -21 21 0 12 18 19 25 8 14
-22 42 -10 51 23 8 26 16 33 44 37 67 10 99 10 105 0z m2220 -80 c-3 -5 -13
-6 -21 -3 -12 4 -13 8 -3 14 15 9 32 2 24 -11z m65 -11 c0 -5 -9 -9 -20 -9
-19 0 -26 11 -14 23 8 8 34 -3 34 -14z m-2200 -29 c0 -5 -5 -10 -11 -10 -5 0
-7 5 -4 10 3 6 8 10 11 10 2 0 4 -4 4 -10z m3930 -15 c0 -2 -5 -16 -11 -32
l-12 -28 -7 25 c-5 14 -8 33 -9 43 -1 15 2 16 19 7 11 -6 20 -13 20 -15z
m-2131 -120 c17 -20 31 -40 31 -45 0 -15 -23 -60 -30 -60 -10 0 -50 98 -50
121 0 28 14 23 49 -16z m-1744 -76 c14 -13 -40 -11 -70 3 -14 6 -25 15 -25 19
0 8 81 -10 95 -22z m-385 -66 c0 -39 -14 -72 -22 -57 -3 5 -6 28 -7 52 -1 31
3 42 14 42 11 0 15 -11 15 -37z m334 1 c4 -11 -4 -14 -34 -14 -44 0 -52 12
-17 27 26 12 43 7 51 -13z m-288 -81 c-10 -10 -19 5 -10 18 6 11 8 11 12 0 2
-7 1 -15 -2 -18z m295 -37 c-6 -14 -15 -26 -21 -26 -5 0 -10 -5 -10 -11 0 -5
4 -8 9 -4 5 3 12 1 16 -5 3 -5 17 -10 31 -10 28 0 33 -24 7 -38 -17 -10 -19
-9 -86 32 l-29 18 21 19 c11 10 24 19 28 19 5 0 14 9 21 21 18 28 25 19 13
-15z m-371 -51 c0 -8 -4 -15 -10 -15 -5 0 -7 7 -4 15 4 8 8 15 10 15 2 0 4 -7
4 -15z m339 -194 c-15 -5 -22 6 -14 19 6 9 10 9 16 -1 5 -8 4 -15 -2 -18z
m1800 -105 c10 -12 8 -17 -8 -25 -22 -12 -37 0 -27 24 7 19 20 19 35 1z
m-2159 -72 c0 -2 -7 -4 -15 -4 -8 0 -15 4 -15 10 0 5 7 7 15 4 8 -4 15 -8 15
-10z m2190 -4 c0 -5 -2 -10 -4 -10 -3 0 -8 5 -11 10 -3 6 -1 10 4 10 6 0 11
-4 11 -10z m-2200 -41 c0 -6 -4 -7 -10 -4 -5 3 -10 11 -10 16 0 6 5 7 10 4 6
-3 10 -11 10 -16z m4834 -125 c8 -22 8 -24 -8 -24 -15 0 -28 24 -19 34 11 10
21 7 27 -10z m-3619 -24 c22 -5 55 -12 74 -15 19 -3 37 -8 40 -10 4 -2 38 -7
76 -11 109 -13 288 -7 378 11 45 9 86 17 91 18 19 4 23 -82 22 -521 l-1 -447
-25 1 c-14 1 -63 5 -110 10 -47 5 -134 8 -195 8 -99 0 -134 -3 -255 -19 -19
-3 -60 -6 -90 -8 l-55 -2 -2 498 c-1 273 1 497 5 497 4 0 25 -5 47 -10z m2896
-505 c0 -268 -2 -490 -5 -492 -3 -4 -59 4 -156 23 -14 2 -50 7 -80 10 -30 2
-66 7 -80 10 -51 10 -209 5 -275 -9 -36 -8 -74 -14 -140 -23 -27 -3 -53 -8
-57 -10 -4 -2 -10 1 -14 8 -8 12 -13 924 -5 967 4 25 12 25 131 5 213 -35 299
-37 474 -9 11 2 55 9 96 15 41 6 76 13 79 16 3 2 11 -2 18 -9 12 -11 14 -103
14 -502z m-1501 354 c0 -7 -25 -19 -41 -19 -5 0 -9 11 -9 25 0 23 2 24 25 13
14 -6 25 -15 25 -19z m-3010 -54 c-7 -8 -17 -15 -22 -15 -6 0 -5 7 2 15 7 8
17 15 22 15 6 0 5 -7 -2 -15z m2595 -75 c-11 -17 -23 -1 -18 21 5 19 7 19 15
5 5 -9 6 -21 3 -26z m-2691 -16 c4 -10 1 -14 -6 -12 -15 5 -23 28 -10 28 5 0
13 -7 16 -16z m126 7 c0 -12 -29 -23 -41 -15 -18 10 -9 24 16 24 14 0 25 -4
25 -9z m5260 -41 c0 -5 -7 -10 -15 -10 -8 0 -15 5 -15 10 0 6 7 10 15 10 8 0
15 -4 15 -10z m-2340 -75 c0 -8 -4 -15 -9 -15 -13 0 -22 16 -14 24 11 11 23 6
23 -9z m-2975 -26 c11 -17 -1 -21 -15 -4 -8 9 -8 15 -2 15 6 0 14 -5 17 -11z
m185 1 c0 -5 -7 -7 -15 -4 -8 4 -15 8 -15 10 0 2 7 4 15 4 8 0 15 -4 15 -10z
m2835 -20 c21 -23 4 -27 -19 -4 -18 17 -20 24 -8 24 5 0 17 -9 27 -20z m-2960
-100 c3 -5 1 -10 -4 -10 -6 0 -11 5 -11 10 0 6 2 10 4 10 3 0 8 -4 11 -10z
m5237 -22 c-9 -9 -12 -7 -12 12 0 19 3 21 12 12 9 -9 9 -15 0 -24z m-44 -100
c-2 -6 -12 -12 -22 -14 -14 -2 -15 0 -5 12 14 17 32 19 27 2z m-4841 -125 c-3
-10 -5 -4 -5 12 0 17 2 24 5 18 2 -7 2 -21 0 -30z m2643 -20 l0 -37 -22 21
c-18 18 -19 24 -8 37 20 25 30 19 30 -21z m-2192 9 c6 -18 -15 -14 -22 4 -4
10 -1 14 6 12 6 -2 14 -10 16 -16z m1708 -74 c-21 -12 -42 4 -32 21 5 8 13 8
28 0 20 -11 20 -12 4 -21z m2171 -143 c-15 -16 -19 -13 -11 9 3 9 10 13 15 10
5 -3 3 -11 -4 -19z m-2577 -29 c14 -4 39 -9 55 -11 56 -10 95 -27 103 -43 4
-9 8 -302 7 -650 l-1 -634 -40 -37 c-44 -42 -250 -206 -334 -266 -30 -22 -56
-43 -58 -47 -2 -5 -8 -8 -13 -8 -10 0 -63 -35 -87 -58 -11 -10 -28 -2 -95 44
-45 31 -88 62 -94 68 -13 12 -14 129 -13 1164 l0 413 38 16 c53 23 129 42 187
49 28 3 52 8 54 10 6 6 261 -3 291 -10z m2140 0 c65 -9 155 -31 198 -49 l30
-12 -2 -735 -1 -734 -60 -34 c-98 -56 -276 -162 -330 -197 -94 -59 -150 -95
-165 -105 -148 -101 -138 -99 -205 -32 l-40 39 0 896 0 897 30 14 c62 28 127
44 215 53 30 2 56 6 57 7 6 5 221 -1 273 -8z m-1623 -46 c-1 -21 -27 -37 -27
-17 0 11 19 37 26 37 2 0 2 -9 1 -20z m-1829 -97 c-23 -49 -33 -63 -45 -63
-16 0 -16 11 -1 45 6 14 20 25 30 25 11 0 18 -3 16 -7z m3910 -114 c-23 -15
-33 9 -12 32 l19 21 3 -22 c2 -13 -2 -26 -10 -31z m-4172 -3 c1 -11 -6 -30
-16 -43 l-18 -24 -7 22 c-4 11 -8 32 -10 46 -2 20 1 24 23 21 16 -2 26 -10 28
-22z m134 10 c0 -2 -7 -6 -15 -10 -8 -3 -15 -1 -15 4 0 6 7 10 15 10 8 0 15
-2 15 -4z m60 -21 c8 -7 22 -14 30 -17 9 -3 0 -10 -22 -17 -32 -11 -39 -19
-50 -54 -6 -23 -12 -51 -12 -62 -1 -21 -30 -32 -49 -18 -13 10 -19 10 -54 -2
-36 -11 -25 -38 19 -48 19 -5 30 -17 38 -42 11 -35 11 -35 44 -21 31 13 35 12
59 -10 15 -13 31 -24 36 -24 19 0 20 -17 3 -41 -9 -13 -17 -32 -18 -41 -1 -10
-2 -26 -3 -35 -1 -14 -5 -13 -23 7 -21 22 -22 22 -29 4 -3 -10 -5 -33 -3 -51
4 -29 1 -33 -29 -38 -18 -4 -45 -2 -60 4 -24 9 -27 15 -27 59 0 59 -17 78 -77
88 -30 4 -40 10 -36 20 3 8 11 14 19 14 8 0 14 4 14 9 0 15 31 21 51 10 19
-10 19 -9 9 10 -8 15 -21 21 -45 21 -31 0 -35 3 -45 40 -6 22 -15 40 -20 40
-6 0 -10 14 -10 31 0 19 4 28 11 24 6 -4 8 -13 5 -20 -9 -25 17 -47 47 -40 40
11 42 21 8 64 -37 46 -38 57 -8 72 12 6 32 20 43 31 14 13 40 21 73 23 55 4
74 11 66 26 -8 11 25 0 45 -16z m1830 1 c0 -14 -8 -32 -17 -41 -16 -16 -18
-16 -35 5 -24 30 -23 34 15 47 17 5 33 11 35 12 1 0 2 -10 2 -23z m-1796 -104
c-6 -4 -13 -15 -17 -24 -7 -19 -27 -25 -27 -9 0 5 -3 16 -6 25 -5 13 1 16 27
16 19 0 29 -4 23 -8z m-347 -28 c2 -6 -7 -14 -20 -16 -17 -3 -23 0 -24 14 -1
14 4 18 19 16 12 -2 23 -8 25 -14z m243 -64 c11 -6 17 -17 14 -25 -9 -21 -24
-18 -24 4 0 12 -8 21 -22 24 -17 3 -18 5 -5 6 10 0 27 -4 37 -9z m100 -16 c0
-8 -4 -14 -10 -14 -5 0 -10 2 -10 4 0 2 -3 12 -6 20 -5 12 -2 15 10 10 9 -3
16 -12 16 -20z m4440 8 c0 -13 -12 -22 -22 -16 -10 6 -1 24 13 24 5 0 9 -4 9
-8z m-2190 -60 c-6 -2 -18 -1 -26 2 -14 5 -14 9 -3 22 12 14 14 14 26 -2 9
-13 10 -20 3 -22z m-2576 -42 c-6 -6 -15 -6 -24 0 -13 9 -13 11 0 20 18 11 39
-5 24 -20z m-47 -22 c-3 -8 -6 -5 -6 6 -1 11 2 17 5 13 3 -3 4 -12 1 -19z
m4833 -48 c0 -5 -4 -10 -10 -10 -5 0 -10 5 -10 10 0 6 5 10 10 10 6 0 10 -4
10 -10z m-4680 -4 c0 -3 -4 -8 -10 -11 -5 -3 -10 -1 -10 4 0 6 5 11 10 11 6 0
10 -2 10 -4z m310 -45 c0 -11 -4 -22 -9 -25 -5 -3 -8 5 -7 19 1 29 16 34 16 6z
m-373 -22 c12 0 28 2 35 3 14 3 14 -4 0 -76 -14 -67 -36 -83 -84 -61 -24 10
-23 35 1 35 29 0 30 19 2 69 l-25 44 25 -7 c13 -4 34 -7 46 -7z m286 -40 c-9
-9 -12 -7 -10 9 1 14 5 18 11 12 7 -7 6 -14 -1 -21z m2207 -60 c-7 -13 -7 -19
0 -19 5 0 10 -7 10 -15 0 -8 -7 -15 -15 -15 -8 0 -14 3 -14 8 3 16 -1 32 -8
31 -35 -6 -36 11 -5 59 l15 22 13 -26 c10 -18 11 -31 4 -45z m-2196 -22 c39
-36 39 -37 16 -45 l-23 -9 21 -21 c20 -20 42 -55 42 -67 0 -6 -43 16 -128 67
l-32 20 2 -29 c1 -16 -1 -34 -6 -41 -8 -13 0 -15 47 -14 31 1 35 -12 10 -28
-17 -9 -17 -11 0 -21 10 -6 33 -23 50 -38 18 -16 38 -26 45 -23 11 3 12 0 2
-19 -18 -34 -51 -69 -67 -69 -7 0 -13 -7 -13 -16 0 -13 3 -14 14 -5 11 9 17 8
29 -4 9 -8 26 -14 38 -13 31 4 35 -22 9 -52 -23 -26 -25 -41 -9 -57 9 -9 4
-12 -20 -11 -18 1 -37 -4 -43 -10 -7 -7 -8 -12 -4 -12 5 0 3 -7 -4 -15 -7 -8
-9 -22 -6 -31 5 -12 14 -15 41 -10 27 5 36 3 44 -13 6 -11 11 -27 11 -35 0
-13 -5 -14 -26 -6 -36 14 -43 13 -37 -8 2 -10 16 -23 31 -30 42 -18 54 -45 43
-94 -6 -23 -8 -45 -5 -47 2 -3 18 3 34 13 l30 17 0 -26 c0 -18 4 -24 13 -18 6
4 21 8 32 9 11 0 30 4 43 8 32 10 28 2 -20 -43 -43 -39 -43 -39 -22 -58 11
-10 18 -26 16 -35 -3 -15 -9 -13 -45 13 l-42 30 -9 -36 c-8 -35 -9 -35 -27
-19 -26 23 -61 26 -54 5 10 -33 -9 -43 -48 -26 -44 18 -48 35 -8 35 35 0 139
61 133 78 -2 8 -9 9 -23 2 -10 -6 -19 -8 -19 -4 0 3 -6 1 -14 -5 -20 -17 -48
-3 -41 20 4 11 2 19 -4 19 -6 0 -11 -6 -11 -14 0 -8 -8 -12 -23 -9 -14 3 -29
-2 -36 -11 -15 -18 -44 -21 -72 -6 -19 11 -19 12 6 54 l25 43 -31 1 c-23 0
-33 -4 -36 -19 -3 -10 -9 -19 -14 -19 -5 0 -8 -6 -6 -12 1 -9 -16 -13 -58 -13
-33 -1 -71 -6 -85 -12 -57 -24 -67 13 -12 48 20 13 41 34 47 47 6 14 18 22 33
22 15 0 22 5 20 13 -6 15 -28 17 -45 4 -9 -6 -13 -5 -13 4 0 11 -2 12 -9 1 -8
-14 -29 -20 -68 -21 -14 -1 -23 -9 -26 -23 -3 -22 -4 -22 -15 5 -7 17 -25 34
-42 40 -29 11 -32 17 -33 67 -1 20 4 25 23 25 17 0 27 9 36 30 7 17 14 24 15
18 1 -7 3 -17 4 -23 1 -5 3 -20 4 -32 2 -39 22 2 20 42 -2 69 -2 70 39 70 20
0 32 4 27 8 -21 14 -55 71 -46 76 4 3 19 -3 31 -14 13 -11 25 -20 27 -20 12 0
23 60 18 92 -8 45 -28 68 -60 68 -25 0 -42 27 -25 44 5 5 24 11 41 12 17 2 33
5 35 7 3 3 6 27 7 53 l2 49 -32 -1 c-25 -2 -33 2 -33 15 0 26 12 37 64 60 46
20 50 20 67 5 17 -15 19 -15 25 0 3 9 12 16 19 16 7 0 30 17 50 39 50 52 93
52 149 -2z m3936 9 c0 -3 -4 -8 -10 -11 -5 -3 -10 -1 -10 4 0 6 5 11 10 11 6
0 10 -2 10 -4z m95 -197 c-10 -16 -20 -10 -40 23 l-18 32 31 -23 c18 -12 30
-27 27 -32z m305 -49 c0 -5 -5 -10 -11 -10 -5 0 -7 5 -4 10 3 6 8 10 11 10 2
0 4 -4 4 -10z m-4685 -136 c11 -5 13 -9 5 -14 -15 -9 -61 0 -54 11 6 11 26 12
49 3z m352 -186 c-3 -8 -6 -5 -6 6 -1 11 2 17 5 13 3 -3 4 -12 1 -19z m-524
-187 c-4 -18 -53 -48 -53 -34 0 9 42 52 52 52 3 1 4 -7 1 -18z m103 -56 c9
-22 -14 -45 -40 -41 -11 3 -29 5 -38 5 -22 1 -24 27 -3 38 27 16 75 14 81 -2z
m185 -110 c-35 -31 -101 -47 -101 -24 0 5 7 9 15 9 8 0 15 4 15 9 0 20 29 36
67 37 l40 1 -36 -32z m1969 21 c0 -8 -7 -17 -16 -20 -23 -9 -24 -8 -24 14 0
13 7 20 20 20 11 0 20 -6 20 -14z m-1872 -67 c-2 -18 -10 -24 -28 -25 -35 -1
-42 5 -28 21 7 8 19 22 27 30 17 21 34 6 29 -26z m456 12 c3 -5 0 -14 -7 -19
-9 -8 -21 -6 -42 8 l-30 20 37 0 c20 0 39 -4 42 -9z m1541 -55 c29 -8 29 -9 9
-18 -12 -6 -26 -19 -31 -30 -8 -19 -10 -20 -26 -4 -17 18 -23 67 -10 80 4 4
12 1 18 -7 5 -7 24 -17 40 -21z m-1705 -11 c16 -19 6 -45 -18 -45 -25 0 -41
18 -35 41 6 23 36 25 53 4z m2250 -69 c0 -3 -4 -8 -10 -11 -5 -3 -10 -1 -10 4
0 6 5 11 10 11 6 0 10 -2 10 -4z m60 -23 c0 -10 -5 -25 -10 -33 -7 -11 -10 -7
-10 18 0 17 5 32 10 32 6 0 10 -8 10 -17z m-2490 -17 c0 -2 -9 -6 -20 -9 -11
-3 -20 -1 -20 4 0 5 9 9 20 9 11 0 20 -2 20 -4z m2375 -86 c-3 -5 -13 -6 -21
-3 -12 4 -13 8 -3 14 15 9 32 2 24 -11z"/>
<path d="M6653 5094 c-19 -19 -16 -24 11 -24 31 0 42 16 19 28 -13 7 -22 6
-30 -4z"/>
<path d="M6723 5021 c-24 -20 -29 -31 -14 -31 5 0 16 11 25 25 20 30 18 30
-11 6z"/>
<path d="M6833 4985 c-33 -14 -41 -29 -24 -39 14 -9 35 2 49 25 18 28 13 30
-25 14z"/>
<path d="M6691 4879 c7 -14 14 -18 21 -11 13 13 2 32 -18 32 -12 0 -13 -4 -3
-21z"/>
<path d="M6932 4838 c-16 -16 -15 -23 4 -42 28 -29 47 3 21 37 -10 14 -15 15
-25 5z"/>
<path d="M6853 4830 c-13 -5 -23 -16 -23 -25 0 -8 -4 -15 -10 -15 -21 0 -8
-26 23 -46 33 -21 34 -21 45 -3 13 20 16 58 6 83 -7 18 -10 18 -41 6z"/>
<path d="M6760 4816 c0 -7 7 -19 15 -26 12 -10 15 -9 15 8 0 11 -7 22 -15 26
-9 3 -15 0 -15 -8z"/>
<path d="M6662 4811 c4 -13 18 -16 19 -4 0 4 -5 9 -11 12 -7 2 -11 -2 -8 -8z"/>
<path d="M6735 4660 c3 -5 12 -7 20 -3 21 7 19 13 -6 13 -11 0 -18 -4 -14 -10z"/>
<path d="M6935 4646 c-18 -13 -18 -14 3 -41 l22 -27 9 23 c17 47 0 70 -34 45z"/>
<path d="M6740 4545 c0 -8 5 -15 10 -15 6 0 10 7 10 15 0 8 -4 15 -10 15 -5 0
-10 -7 -10 -15z"/>
<path d="M6600 4523 c0 -4 5 -15 10 -23 8 -13 10 -13 10 2 0 9 -4 20 -10 23
-5 3 -10 3 -10 -2z"/>
<path d="M6937 4434 c-4 -4 -4 -10 -1 -15 6 -10 34 0 34 12 0 10 -24 12 -33 3z"/>
<path d="M6825 4421 c-3 -6 -2 -11 4 -11 6 0 13 -11 17 -25 3 -13 12 -29 20
-35 11 -10 13 -4 10 32 -3 34 -7 44 -24 46 -11 2 -23 -2 -27 -7z"/>
<path d="M6670 4219 c0 -5 5 -7 10 -4 6 3 10 8 10 11 0 2 -4 4 -10 4 -5 0 -10
-5 -10 -11z"/>
<path d="M6907 4173 c-4 -3 -7 -11 -7 -17 0 -6 5 -5 12 2 6 6 9 14 7 17 -3 3
-9 2 -12 -2z"/>
<path d="M6923 4064 c-19 -8 -3 -34 21 -34 29 0 39 10 25 27 -12 13 -25 15
-46 7z"/>
<path d="M6560 3992 c0 -5 7 -13 16 -16 10 -4 14 -1 12 6 -5 15 -28 23 -28 10z"/>
<path d="M6996 3811 c-12 -5 -15 -10 -9 -14 6 -4 16 0 23 8 14 17 13 17 -14 6z"/>
<path d="M6838 3729 c-23 -13 -12 -52 13 -44 11 4 31 8 46 9 15 2 29 9 31 16
3 7 0 10 -6 6 -6 -4 -24 0 -40 8 -18 9 -33 11 -44 5z"/>
<path d="M6705 3691 c-3 -5 -1 -12 4 -15 5 -3 11 1 15 9 6 16 -9 21 -19 6z"/>
<path d="M6655 3550 c-3 -5 -1 -10 4 -10 6 0 11 5 11 10 0 6 -2 10 -4 10 -3 0
-8 -4 -11 -10z"/>
<path d="M6926 3515 c-7 -19 5 -19 30 0 19 14 19 14 -2 15 -12 0 -24 -7 -28
-15z"/>
<path d="M6634 3402 c6 -10 42 -9 52 1 4 4 -7 7 -25 7 -18 0 -30 -4 -27 -8z"/>
<path d="M6960 3356 c0 -8 5 -18 10 -21 6 -3 10 3 10 14 0 12 -4 21 -10 21 -5
0 -10 -6 -10 -14z"/>
<path d="M6757 3323 c-4 -3 -7 -11 -7 -17 0 -6 5 -5 12 2 6 6 9 14 7 17 -3 3
-9 2 -12 -2z"/>
<path d="M6897 3323 c-7 -16 -1 -38 11 -38 6 0 12 3 12 8 0 4 0 14 0 22 0 15
-16 21 -23 8z"/>
<path d="M6897 3254 c-4 -4 -7 -14 -7 -23 0 -11 3 -12 11 -4 6 6 10 16 7 23
-2 6 -7 8 -11 4z"/>
<path d="M6876 3194 c-9 -22 3 -32 14 -14 12 19 12 30 1 30 -5 0 -12 -7 -15
-16z"/>
<path d="M6576 3093 c-4 -9 -1 -20 6 -24 19 -12 29 0 18 22 -13 23 -16 24 -24
2z"/>
<path d="M6855 3070 c-3 -5 1 -10 10 -10 9 0 13 5 10 10 -3 6 -8 10 -10 10 -2
0 -7 -4 -10 -10z"/>
<path d="M6555 3010 c-3 -5 1 -10 10 -10 9 0 13 5 10 10 -3 6 -8 10 -10 10 -2
0 -7 -4 -10 -10z"/>
<path d="M6736 2921 c-4 -5 -2 -12 3 -15 5 -4 12 -2 15 3 4 5 2 12 -3 15 -5 4
-12 2 -15 -3z"/>
<path d="M6912 2854 c-23 -17 -6 -35 23 -24 13 5 33 7 44 5 16 -3 21 1 21 16
0 16 -6 19 -36 17 -20 -1 -43 -7 -52 -14z"/>
<path d="M6687 2781 c-17 -6 -16 -8 7 -19 14 -6 28 -7 31 -3 8 14 -18 29 -38
22z"/>
<path d="M6730 2582 c0 -5 7 -9 15 -9 8 0 15 4 15 9 0 4 -7 8 -15 8 -8 0 -15
-4 -15 -8z"/>
<path d="M6655 2350 c-14 -15 -15 -20 -4 -21 8 0 26 -3 41 -5 31 -5 45 11 28
31 -17 21 -44 19 -65 -5z"/>
<path d="M6670 2186 c0 -9 7 -16 16 -16 17 0 14 22 -4 28 -7 2 -12 -3 -12 -12z"/>
<path d="M6950 2115 c0 -17 9 -19 28 -6 11 7 10 10 -3 15 -23 9 -25 8 -25 -9z"/>
<path d="M6875 2060 c-19 -8 -19 -9 2 -9 12 -1 25 4 28 9 7 12 -2 12 -30 0z"/>
<path d="M6875 1988 c10 -32 18 -39 35 -28 12 7 11 12 -4 29 -25 27 -39 27
-31 -1z"/>
<path d="M6745 1910 c-3 -5 -1 -18 4 -27 6 -10 11 -16 11 -13 7 31 7 41 0 45
-5 3 -11 1 -15 -5z"/>
<path d="M6906 1715 c-3 -9 0 -15 9 -15 8 0 15 7 15 15 0 8 -4 15 -9 15 -5 0
-11 -7 -15 -15z"/>
<path d="M6835 1694 l-16 -25 25 16 c14 10 23 21 20 26 -8 13 -10 12 -29 -17z"/>
<path d="M4510 4849 c0 -25 36 -69 64 -79 16 -5 31 -8 33 -6 6 5 -16 47 -31
61 -20 19 -66 35 -66 24z"/>
<path d="M4637 4725 c-15 -14 -24 -25 -18 -25 5 0 13 4 16 10 3 5 16 -2 29
-16 21 -25 71 -40 81 -25 5 9 -59 81 -71 81 -5 0 -22 -12 -37 -25z"/>
<path d="M4566 4601 c-4 -6 -5 -15 -2 -19 2 -4 1 -14 -4 -22 -6 -9 -2 -21 10
-34 11 -12 28 -32 38 -45 l19 -24 2 66 c2 59 0 67 -16 67 -11 0 -24 5 -30 11
-8 8 -13 8 -17 0z"/>
<path d="M4690 4526 c0 -2 7 -9 15 -16 9 -7 15 -8 15 -2 0 5 -7 12 -15 16 -8
3 -15 4 -15 2z"/>
<path d="M4586 4442 c-3 -4 -7 -27 -10 -51 -3 -24 -10 -49 -17 -57 -12 -14 -8
-16 26 -16 39 0 44 3 40 24 -7 33 3 56 26 63 28 9 24 19 -14 33 -39 14 -44 15
-51 4z"/>
<path d="M4480 4320 c-11 -7 48 -45 68 -44 6 1 17 2 24 3 7 1 5 8 -6 20 -18
20 -68 32 -86 21z"/>
<path d="M4418 4286 c-6 -29 5 -51 21 -42 15 10 14 41 -3 55 -11 9 -15 6 -18
-13z"/>
<path d="M4647 4229 c7 -7 15 -10 18 -7 3 3 -2 9 -12 12 -14 6 -15 5 -6 -5z"/>
<path d="M4724 4094 c3 -9 6 -21 6 -27 1 -13 30 22 30 35 0 4 -9 8 -21 8 -15
0 -19 -4 -15 -16z"/>
<path d="M4585 4050 c-3 -5 -1 -10 4 -10 6 0 11 5 11 10 0 6 -2 10 -4 10 -3 0
-8 -4 -11 -10z"/>
<path d="M4747 4023 c-15 -14 -6 -30 16 -28 36 4 37 4 31 20 -6 15 -35 20 -47
8z"/>
<path d="M4650 3944 c0 -9 7 -14 17 -12 25 5 28 28 4 28 -12 0 -21 -6 -21 -16z"/>
<path d="M4570 3889 c0 -5 11 -9 25 -9 14 0 25 2 25 4 0 2 -11 6 -25 8 -14 3
-25 1 -25 -3z"/>
<path d="M4479 3851 c-11 -18 -13 -35 -8 -49 10 -25 24 -29 33 -7 3 8 16 15
29 15 13 0 26 3 30 6 7 7 -21 37 -48 52 -17 9 -23 6 -36 -17z"/>
<path d="M4643 3663 c-7 -19 23 -44 43 -36 22 8 16 27 -12 40 -21 10 -26 9
-31 -4z"/>
<path d="M4614 3588 c0 -12 6 -23 13 -25 7 -3 9 3 6 17 -8 28 -20 34 -19 8z"/>
<path d="M4664 3430 c1 -38 17 -53 31 -30 5 8 -20 70 -29 70 -2 0 -3 -18 -2
-40z"/>
<path d="M4630 3131 c0 -5 6 -14 14 -20 16 -13 32 2 21 19 -8 12 -35 13 -35 1z"/>
<path d="M4531 3108 c-21 -22 -19 -35 10 -55 9 -7 20 -24 23 -38 4 -15 12 -25
19 -22 22 7 18 33 -7 45 -21 9 -24 16 -20 51 2 23 2 41 -1 41 -2 0 -13 -10
-24 -22z"/>
<path d="M4663 3025 c-22 -9 -27 -21 -26 -53 1 -8 -11 -21 -27 -30 -33 -21
-82 -77 -73 -86 10 -9 -6 -7 -27 4 -13 7 -21 6 -30 -5 -7 -8 -19 -15 -26 -15
-9 0 -13 -9 -12 -25 2 -24 3 -24 21 -5 10 11 29 20 42 20 22 0 23 -3 15 -30
-5 -16 -5 -30 0 -30 10 0 30 56 23 64 -4 3 2 6 13 6 10 0 37 18 58 40 33 33
42 38 48 25 12 -21 40 -19 36 2 -2 10 3 18 10 19 6 1 17 2 22 3 16 2 12 21 -5
21 -8 0 -26 5 -40 12 l-25 11 24 32 c25 32 18 39 -21 20z"/>
<path d="M4505 2960 c-23 -45 -8 -56 26 -21 34 36 37 51 9 51 -12 0 -26 -12
-35 -30z"/>
<path d="M4497 2749 c7 -7 15 -10 18 -7 3 3 -2 9 -12 12 -14 6 -15 5 -6 -5z"/>
<path d="M4603 2673 c-25 -17 -31 -43 -10 -43 20 0 50 25 53 44 3 20 -14 20
-43 -1z"/>
<path d="M4640 2610 c0 -5 5 -10 10 -10 6 0 10 5 10 10 0 6 -4 10 -10 10 -5 0
-10 -4 -10 -10z"/>
<path d="M4695 2611 c-9 -15 8 -41 22 -33 8 5 8 12 -2 25 -8 11 -16 14 -20 8z"/>
<path d="M4675 2530 c-3 -5 -1 -10 4 -10 6 0 11 5 11 10 0 6 -2 10 -4 10 -3 0
-8 -4 -11 -10z"/>
<path d="M4510 2504 c0 -8 4 -14 8 -14 5 0 18 -9 30 -20 25 -24 27 -21 11 14
-13 27 -49 43 -49 20z"/>
<path d="M4640 2496 c0 -8 4 -17 9 -21 6 -3 9 4 8 15 -1 23 -17 28 -17 6z"/>
<path d="M4502 2408 c-7 -7 -12 -22 -12 -34 0 -27 43 -40 83 -25 28 11 37 23
15 20 -27 -3 -35 2 -46 26 -13 28 -22 31 -40 13z"/>
<path d="M4710 2367 c0 -7 6 -21 13 -30 11 -16 14 -16 35 -1 27 18 19 32 -21
40 -18 3 -27 0 -27 -9z"/>
<path d="M4590 2000 c-13 -8 -12 -10 3 -10 9 0 17 5 17 10 0 12 -1 12 -20 0z"/>
<path d="M4470 1950 c-34 -34 -23 -53 14 -25 28 21 33 19 51 -19 16 -33 44
-43 53 -18 5 16 -58 82 -80 82 -10 0 -27 -9 -38 -20z"/>
<path d="M4544 1824 c23 -23 20 -34 -14 -45 -16 -6 -28 -15 -25 -20 7 -10 36
-1 51 17 6 7 24 18 40 25 l29 11 -35 13 c-50 19 -65 19 -46 -1z"/>
<path d="M4655 1750 c-3 -5 1 -10 9 -10 9 0 16 5 16 10 0 6 -4 10 -9 10 -6 0
-13 -4 -16 -10z"/>
<path d="M4712 1658 c-7 -7 -12 -16 -12 -20 0 -12 28 -10 36 3 10 17 -10 31
-24 17z"/>
<path d="M4754 1544 c-18 -14 -18 -15 4 -4 12 6 22 13 22 15 0 8 -5 6 -26 -11z"/>
<path d="M4624 1408 c-4 -6 0 -16 9 -23 10 -7 17 -17 17 -24 0 -12 40 -16 41
-3 0 4 2 15 4 25 5 29 -55 51 -71 25z"/>
<path d="M4828 1345 c-2 -3 -19 -7 -37 -9 -44 -5 -49 -13 -20 -39 57 -51 60
-52 53 -19 -3 16 -1 39 5 51 11 20 11 27 -1 16z"/>
<path d="M4686 1276 c6 -15 34 -30 42 -22 10 11 -9 36 -27 36 -14 0 -19 -5
-15 -14z"/>
<path d="M4770 1199 c0 -5 5 -7 10 -4 6 3 10 8 10 11 0 2 -4 4 -10 4 -5 0 -10
-5 -10 -11z"/>
<path d="M4403 1189 c-9 -9 -8 -15 2 -25 19 -19 32 -17 44 5 8 15 7 20 -5 25
-22 8 -28 8 -41 -5z"/>
<path d="M4543 1133 c-22 -15 -32 -43 -15 -43 13 0 45 38 41 48 -2 6 -14 3
-26 -5z"/>
<path d="M4697 1143 c-24 -6 -17 -25 17 -42 24 -11 30 -11 43 2 33 32 -2 55
-60 40z"/>
<path d="M4648 1054 c-4 -3 -14 -7 -25 -9 -10 -2 -19 -4 -20 -4 -9 -4 22 -61
33 -61 8 0 14 1 14 3 12 78 12 86 -2 71z"/>
<path d="M4820 1053 c0 -6 -11 -14 -25 -17 -15 -4 -25 -14 -25 -25 0 -15 8
-18 44 -17 42 1 43 2 33 26 -13 31 -27 48 -27 33z"/>
<path d="M4730 1042 c0 -5 7 -15 15 -22 8 -7 15 -8 15 -2 0 5 -7 15 -15 22 -8
7 -15 8 -15 2z"/>
<path d="M4723 983 c-7 -3 -13 -8 -13 -13 0 -9 38 -1 45 10 5 7 -13 9 -32 3z"/>
<path d="M4660 960 c0 -5 7 -10 15 -10 8 0 15 5 15 10 0 6 -7 10 -15 10 -8 0
-15 -4 -15 -10z"/>
<path d="M4685 894 c-49 -18 -68 -35 -60 -56 7 -19 54 -42 56 -28 1 6 3 15 4
20 1 6 3 15 4 20 1 7 7 7 19 1 24 -13 37 -2 39 32 1 30 -5 32 -62 11z"/>
<path d="M2461 4621 c-9 -6 -7 -10 8 -14 12 -3 21 -1 21 3 0 14 -15 19 -29 11z"/>
<path d="M2410 4067 c0 -7 4 -19 10 -27 7 -12 12 -12 34 0 30 16 29 18 -13 30
-22 6 -31 5 -31 -3z"/>
<path d="M2420 3954 c0 -8 5 -12 10 -9 6 3 10 10 10 16 0 5 -4 9 -10 9 -5 0
-10 -7 -10 -16z"/>
<path d="M2540 3829 c0 -5 5 -7 10 -4 6 3 10 8 10 11 0 2 -4 4 -10 4 -5 0 -10
-5 -10 -11z"/>
<path d="M2446 3786 c-19 -30 -20 -35 -3 -32 38 7 58 19 55 34 -5 27 -34 25
-52 -2z"/>
<path d="M2544 3743 c-4 -16 -14 -40 -23 -56 -14 -25 -14 -28 4 -45 11 -10 33
-24 48 -30 26 -11 27 -10 25 11 -2 12 -7 28 -11 35 -5 7 -6 26 -2 42 13 60
-27 101 -41 43z"/>
<path d="M2316 3744 c-8 -22 1 -31 16 -16 9 9 9 15 1 23 -7 7 -12 5 -17 -7z"/>
<path d="M2610 3709 c0 -5 5 -7 10 -4 6 3 10 8 10 11 0 2 -4 4 -10 4 -5 0 -10
-5 -10 -11z"/>
<path d="M2380 3660 c0 -5 5 -10 10 -10 6 0 10 5 10 10 0 6 -4 10 -10 10 -5 0
-10 -4 -10 -10z"/>
<path d="M2145 3600 c-3 -5 -1 -10 4 -10 6 0 11 5 11 10 0 6 -2 10 -4 10 -3 0
-8 -4 -11 -10z"/>
<path d="M2516 3594 c-11 -27 -7 -44 9 -38 8 3 14 17 13 30 -3 27 -13 31 -22
8z"/>
<path d="M2150 3466 c0 -9 30 -14 35 -6 4 6 -3 10 -14 10 -12 0 -21 -2 -21 -4z"/>
<path d="M2086 3381 c-3 -5 1 -14 9 -21 13 -10 15 -9 15 9 0 21 -14 28 -24 12z"/>
<path d="M2223 3355 c-3 -9 -3 -18 0 -21 9 -9 27 6 27 22 0 19 -19 18 -27 -1z"/>
<path d="M2110 3312 c0 -21 7 -32 26 -41 34 -15 46 -3 17 16 -13 9 -23 21 -23
29 0 7 -4 16 -10 19 -6 4 -10 -6 -10 -23z"/>
<path d="M2445 3280 c-3 -5 1 -10 9 -10 9 0 16 5 16 10 0 6 -4 10 -9 10 -6 0
-13 -4 -16 -10z"/>
<path d="M2255 3120 c3 -5 12 -7 20 -3 21 7 19 13 -6 13 -11 0 -18 -4 -14 -10z"/>
<path d="M2400 3081 c0 -5 5 -13 10 -16 6 -3 10 -2 10 4 0 5 -4 13 -10 16 -5
3 -10 2 -10 -4z"/>
<path d="M2390 2919 c0 -5 5 -7 10 -4 6 3 10 8 10 11 0 2 -4 4 -10 4 -5 0 -10
-5 -10 -11z"/>
<path d="M2425 2850 c-7 -11 11 -50 23 -50 5 0 13 5 20 12 9 9 8 16 -5 30 -18
20 -29 23 -38 8z"/>
<path d="M2340 2820 c-9 -17 -8 -20 9 -20 19 0 35 23 24 34 -11 11 -22 6 -33
-14z"/>
<path d="M2585 2730 c-8 -13 5 -13 25 0 13 8 13 10 -2 10 -9 0 -20 -4 -23 -10z"/>
<path d="M2480 2636 c0 -2 7 -9 15 -16 9 -7 15 -8 15 -2 0 5 -7 12 -15 16 -8
3 -15 4 -15 2z"/>
<path d="M2466 2097 c-19 -14 -19 -15 10 -30 42 -22 124 -14 124 13 0 4 -17
10 -37 13 -21 3 -47 8 -58 11 -11 4 -28 1 -39 -7z"/>
<path d="M2459 1712 c0 -4 -2 -14 -4 -23 -2 -12 3 -15 16 -12 23 6 25 29 4 37
-8 3 -15 2 -16 -2z"/>
<path d="M2390 1623 c0 -22 2 -25 10 -13 13 20 13 40 0 40 -5 0 -10 -12 -10
-27z"/>
<path d="M2541 1554 c-25 -31 -27 -51 -6 -51 8 0 15 3 16 6 3 24 10 55 13 59
3 2 15 -4 29 -12 26 -18 57 -12 57 10 0 10 -13 14 -44 14 -36 0 -48 -5 -65
-26z"/>
<path d="M2417 1533 c7 -18 33 -17 33 1 0 8 -8 14 -19 13 -11 0 -17 -6 -14
-14z"/>
<path d="M2370 1465 c0 -17 9 -19 28 -6 11 7 10 10 -3 15 -23 9 -25 8 -25 -9z"/>
<path d="M2618 1443 c7 -3 16 -2 19 1 4 3 -2 6 -13 5 -11 0 -14 -3 -6 -6z"/>
<path d="M2410 1420 c0 -5 5 -10 11 -10 5 0 7 5 4 10 -3 6 -8 10 -11 10 -2 0
-4 -4 -4 -10z"/>
<path d="M2410 1346 c5 -5 10 -19 10 -30 0 -18 -1 -18 -19 -2 -18 16 -19 16
-23 -9 -3 -14 -1 -28 3 -31 5 -3 9 -14 9 -25 0 -31 18 -22 25 14 4 17 13 41
20 52 19 31 17 39 -10 41 -18 1 -23 -2 -15 -10z"/>
<path d="M2496 1311 c-4 -5 -2 -12 3 -15 5 -4 12 -2 15 3 4 5 2 12 -3 15 -5 4
-12 2 -15 -3z"/>
<path d="M2526 1215 c4 -8 8 -15 10 -15 2 0 4 7 4 15 0 8 -4 15 -10 15 -5 0
-7 -7 -4 -15z"/>
<path d="M2420 1080 c0 -19 11 -26 23 -14 8 8 -3 34 -14 34 -5 0 -9 -9 -9 -20z"/>
<path d="M2540 1080 c0 -18 3 -19 20 -10 22 12 18 30 -6 30 -8 0 -14 -9 -14
-20z"/>
<path d="M2575 1020 c-3 -6 1 -7 9 -4 18 7 21 14 7 14 -6 0 -13 -4 -16 -10z"/>
</g>
</svg>
